HIERARCHY
ROOT pelvis
{
  OFFSET 0 100 0
  CHANNELS 6 Xposition Yposition Zposition Zrotation Xrotation Yrotation
  JOINT pelvis_right_femur
  {
    OFFSET -10.78128 -3.44521 -0.5502486
    CHANNELS 3 Zrotation Xrotation Yrotation
    JOINT right_femur_tibia
    {
      OFFSET -0.8047443 -44.0398 -0.1307829
      CHANNELS 3 Zrotation Xrotation Yrotation
      JOINT right_tibia_foot
      {
        OFFSET 3.006224 -47.83518 -5
        CHANNELS 3 Zrotation Xrotation Yrotation
        End Site
        {
          OFFSET 0 -5 15
        }
      }
    }
  }
  JOINT pelvis_left_femur
  {
    OFFSET 10.78128 -3.44521 -0.5502486
    CHANNELS 3 Zrotation Xrotation Yrotation
    JOINT left_femur_tibia
    {
      OFFSET 0.8047443 -44.0398 -0.1307829
      CHANNELS 3 Zrotation Xrotation Yrotation
      JOINT left_tibia_foot
      {
        OFFSET -4.370144 -48.10324 -4.275266
        CHANNELS 3 Zrotation Xrotation Yrotation
        End Site
        {
          OFFSET 0 -5 15
        }
      }
    }
  }
  JOINT pelvis_spine1
  {
    OFFSET 0 6.468898 -3.129235
    CHANNELS 3 Zrotation Xrotation Yrotation
    JOINT spine1
    {
      OFFSET 0 23.15396 4.99043
      CHANNELS 3 Zrotation Xrotation Yrotation
      JOINT spine2
      {
        OFFSET 0 20.79997 -5.064912
        CHANNELS 3 Zrotation Xrotation Yrotation
        JOINT neck
        {
          OFFSET 0 14.38658 9.616178
          CHANNELS 3 Zrotation Xrotation Yrotation
          End Site
          {
            OFFSET 0 20 0
          }
        }
      }
      JOINT right_manubrium
      {
        OFFSET -5.722621 16.35077 3.967754
        CHANNELS 3 Zrotation Xrotation Yrotation
        JOINT right_clavicle
        {
          OFFSET -13.16364 1.694482 -4.693211
          CHANNELS 3 Zrotation Xrotation Yrotation
          JOINT right_humerus
          {
            OFFSET -28.5034 -0.3100689 -2.792744
            CHANNELS 3 Zrotation Xrotation Yrotation
            JOINT right_radius
            {
              OFFSET -25.15693 0.02248979 -1.271978
              CHANNELS 3 Zrotation Xrotation Yrotation
              End Site
              {
                OFFSET -15 0 0
              }
            }
          }
        }
      }
      JOINT left_manubrium
      {
        OFFSET 5.722621 16.35077 3.967754
        CHANNELS 3 Zrotation Xrotation Yrotation
        JOINT left_clavicle
        {
          OFFSET 13.16364 1.694482 -4.693211
          CHANNELS 3 Zrotation Xrotation Yrotation
          JOINT left_humerus
          {
            OFFSET 29.39168 -1.063119 -2.237045
            CHANNELS 3 Zrotation Xrotation Yrotation
            JOINT left_radius
            {
              OFFSET 24.59957 -0.9528479 0.9047498
              CHANNELS 3 Zrotation Xrotation Yrotation
              End Site
              {
                OFFSET 15 -0 -0
              }
            }
          }
        }
      }
    }
  }
}
MOTION
Frames: 19
Frame Time: 0.0416666666667
2151.613 73.32733 1524.107 9.79058 11.20107 139.2931 3.478345 2.611816 -10.983 -0 22.82873 -0 -16.6017 19.31974 2.69992 -1.631942 0.9384234 -0.4211823 -0 15.58922 -0 5.470609 -9.539992 15.24888 1.336211 -3.550823 3.301795 -2.128797 17.87798 -5.003088 2.213835 24.03458 3.418499 0.3660191 -19.20803 6.541549 -12.09058 -26.59055 10.53973 103.7984 1.833113 -14.35366 -0 0 9.37092 -35.2928 9.727164 17.33398 4.825875 -28.5402 -11.47686 -86.81211 5.312953 19.44753 0 0 -16.55071 19.95475 16.93473 -10.68911
2156.36 73.38782 1517.536 9.712628 11.26852 139.6932 3.478345 2.611816 -10.983 -0 22.82873 -0 -16.6017 19.31974 2.69992 -1.631942 0.9384233 -0.4211823 -0 15.58922 -0 5.470609 -9.539992 15.24888 1.336211 -3.550823 3.301795 -2.128797 17.87798 -5.003088 2.213835 24.03458 3.418499 0.3660191 -19.20803 6.541549 -12.09058 -26.59055 10.53973 103.7984 1.833113 -14.35366 -0 0 9.37092 -35.2928 9.727164 17.33398 4.825875 -28.5402 -11.47686 -86.81211 5.312953 19.44753 0 0 -16.55071 19.95475 16.93473 -10.68911
2161.061 73.44831 1510.931 9.634178 11.33543 140.0935 3.478345 2.611816 -10.983 -0 22.82873 -0 -16.6017 19.31974 2.69992 -1.631942 0.9384232 -0.4211823 -0 15.58922 -0 5.470609 -9.539992 15.24888 1.336211 -3.550823 3.301795 -2.128797 17.87798 -5.003088 2.213835 24.03458 3.418499 0.3660191 -19.20803 6.541549 -12.09058 -26.59055 10.53973 103.7984 1.833113 -14.35366 -0 0 9.37092 -35.2928 9.727164 17.33398 4.825875 -28.5402 -11.47686 -86.81211 5.312953 19.44753 0 0 -16.55071 19.95475 16.93473 -10.68911
2165.717 73.5088 1504.294 9.555236 11.4018 140.494 3.478345 2.611816 -10.983 -0 22.82873 -0 -16.6017 19.31974 2.69992 -1.631942 0.9384231 -0.4211823 -0 15.58922 -0 5.470609 -9.539992 15.24888 1.336211 -3.550823 3.301795 -2.128797 17.87798 -5.003088 2.213835 24.03458 3.418499 0.3660191 -19.20803 6.541549 -12.09058 -26.59055 10.53973 103.7984 1.833113 -14.35366 -0 0 9.37092 -35.2928 9.727164 17.33398 4.825875 -28.5402 -11.47686 -86.81211 5.312953 19.44753 0 0 -16.55071 19.95475 16.93473 -10.68911
2170.326 73.56929 1497.625 9.475804 11.46762 140.8946 3.478345 2.611816 -10.983 -0 22.82873 -0 -16.6017 19.31974 2.69992 -1.631942 0.9384232 -0.4211823 -0 15.58922 -0 5.470609 -9.539992 15.24888 1.336211 -3.550823 3.301795 -2.128797 17.87798 -5.003088 2.213835 24.03458 3.418499 0.3660192 -19.20803 6.541549 -12.09058 -26.59055 10.53973 103.7984 1.833113 -14.35366 -0 0 9.37092 -35.2928 9.727164 17.33398 4.825875 -28.5402 -11.47686 -86.81211 5.312953 19.44753 0 0 -16.55071 19.95475 16.93473 -10.68911
2174.888 73.62978 1490.924 9.395885 11.5329 141.2955 3.478345 2.611816 -10.983 -0 22.82873 -0 -16.6017 19.31974 2.69992 -1.631942 0.9384232 -0.4211823 -0 15.58922 -0 5.470609 -9.539992 15.24888 1.336211 -3.550823 3.301795 -2.128797 17.87798 -5.003088 2.213835 24.03458 3.418499 0.3660192 -19.20803 6.541549 -12.09058 -26.59055 10.53973 103.7984 1.833113 -14.35366 -0 0 9.37092 -35.2928 9.727164 17.33398 4.825875 -28.5402 -11.47686 -86.81211 5.312953 19.44753 0 0 -16.55071 19.95475 16.93473 -10.68911
2179.404 73.69027 1484.191 9.315483 11.59763 141.6965 3.478345 2.611816 -10.983 -0 22.82873 -0 -16.6017 19.31974 2.69992 -1.631942 0.9384233 -0.4211824 -0 15.58922 -0 5.470609 -9.539992 15.24888 1.336211 -3.550823 3.301795 -2.128797 17.87798 -5.003088 2.213835 24.03458 3.418499 0.3660192 -19.20803 6.541549 -12.09058 -26.59055 10.53973 103.7984 1.833113 -14.35366 -0 0 9.37092 -35.2928 9.727164 17.33398 4.825875 -28.5402 -11.47686 -86.81211 5.312953 19.44753 0 0 -16.55071 19.95475 16.93473 -10.68911
2183.873 73.75075 1477.427 9.234603 11.66181 142.0977 3.478345 2.611816 -10.983 -0 22.82873 -0 -16.6017 19.31974 2.69992 -1.631942 0.9384234 -0.4211824 -0 15.58922 -0 5.470609 -9.539992 15.24888 1.336211 -3.550823 3.301795 -2.128797 17.87798 -5.003088 2.213835 24.03458 3.418499 0.3660192 -19.20803 6.541549 -12.09058 -26.59055 10.53973 103.7984 1.833113 -14.35366 -0 0 9.37092 -35.2928 9.727164 17.33398 4.825875 -28.5402 -11.47686 -86.81211 5.312953 19.44753 0 0 -16.55071 19.95475 16.93473 -10.68911
2188.295 73.81124 1470.632 9.153246 11.72543 142.4991 3.478345 2.611816 -10.983 -0 22.82873 -0 -16.6017 19.31974 2.69992 -1.631942 0.9384235 -0.4211824 -0 15.58922 -0 5.470609 -9.539992 15.24888 1.336211 -3.550823 3.301795 -2.128797 17.87798 -5.003088 2.213835 24.03458 3.418499 0.3660192 -19.20803 6.541549 -12.09058 -26.59055 10.53973 103.7984 1.833113 -14.35366 -0 0 9.37092 -35.2928 9.727164 17.33398 4.825875 -28.5402 -11.47686 -86.81211 5.312953 19.44753 0 0 -16.55071 19.95475 16.93473 -10.68911
2192.67 73.87173 1463.807 9.071418 11.7885 142.9007 3.478345 2.611815 -10.983 -0 22.82873 -0 -16.6017 19.31974 2.69992 -1.631942 0.9384236 -0.4211824 -0 15.58922 -0 5.470609 -9.539992 15.24888 1.336211 -3.550823 3.301795 -2.128797 17.87798 -5.003088 2.213835 24.03458 3.418499 0.3660192 -19.20803 6.541549 -12.09058 -26.59055 10.53973 103.7984 1.833113 -14.35366 -0 0 9.37092 -35.2928 9.727164 17.33398 4.825875 -28.5402 -11.47686 -86.81211 5.312953 19.44753 0 0 -16.55071 19.95475 16.93473 -10.68911
2196.997 73.93222 1456.951 8.989121 11.85099 143.3025 3.478345 2.611815 -10.983 -0 22.82873 -0 -16.6017 19.31974 2.69992 -1.631942 0.9384237 -0.4211824 -0 15.58922 -0 5.470609 -9.539992 15.24888 1.336211 -3.550823 3.301795 -2.128797 17.87798 -5.003088 2.213835 24.03458 3.418499 0.3660192 -19.20803 6.541549 -12.09058 -26.59055 10.53973 103.7984 1.833113 -14.35366 -0 0 9.370919 -35.2928 9.727164 17.33398 4.825875 -28.5402 -11.47686 -86.81211 5.312953 19.44753 0 0 -16.55071 19.95475 16.93473 -10.68911
2201.276 73.99271 1450.066 8.906359 11.91293 143.7045 3.478345 2.611815 -10.983 -0 22.82873 -0 -16.6017 19.31974 2.69992 -1.631942 0.9384238 -0.4211824 -0 15.58922 -0 5.470609 -9.539992 15.24888 1.336211 -3.550823 3.301795 -2.128797 17.87798 -5.003088 2.213835 24.03458 3.418499 0.3660192 -19.20803 6.541549 -12.09058 -26.59055 10.53973 103.7984 1.833113 -14.35366 -0 0 9.370919 -35.2928 9.727164 17.33398 4.825875 -28.5402 -11.47686 -86.81211 5.312953 19.44753 0 0 -16.55071 19.95475 16.93473 -10.68911
2205.508 74.0532 1443.151 8.823137 11.97429 144.1066 3.478345 2.611815 -10.983 -0 22.82873 -0 -16.6017 19.31974 2.69992 -1.631942 0.9384239 -0.4211824 -0 15.58922 -0 5.470609 -9.539992 15.24888 1.336211 -3.550823 3.301795 -2.128797 17.87798 -5.003088 2.213835 24.03458 3.418499 0.3660192 -19.20803 6.541549 -12.09058 -26.59055 10.53973 103.7984 1.833113 -14.35366 -0 0 9.370919 -35.2928 9.727164 17.33398 4.825875 -28.5402 -11.47686 -86.81211 5.312953 19.44753 0 0 -16.55071 19.95475 16.93473 -10.68911
2209.691 74.11369 1436.206 8.739457 12.03508 144.5089 3.478345 2.611815 -10.983 -0 22.82873 -0 -16.6017 19.31974 2.69992 -1.631942 0.938424 -0.4211824 -0 15.58922 -0 5.470609 -9.539992 15.24888 1.336211 -3.550823 3.301795 -2.128797 17.87798 -5.003088 2.213835 24.03458 3.418499 0.3660192 -19.20803 6.541549 -12.09058 -26.59055 10.53973 103.7984 1.833113 -14.35366 -0 0 9.370919 -35.2928 9.727164 17.33398 4.825875 -28.5402 -11.47686 -86.81211 5.312953 19.44753 0 0 -16.55071 19.95475 16.93473 -10.68911
2213.826 74.17418 1429.233 8.655324 12.09529 144.9114 3.478345 2.611815 -10.983 -0 22.82873 -0 -16.6017 19.31974 2.69992 -1.631942 0.938424 -0.4211824 -0 15.58922 -0 5.470609 -9.539992 15.24888 1.336211 -3.550823 3.301795 -2.128797 17.87798 -5.003088 2.213835 24.03458 3.418499 0.3660192 -19.20803 6.541549 -12.09058 -26.59055 10.53973 103.7984 1.833112 -14.35366 -0 0 9.370919 -35.2928 9.727164 17.33398 4.825875 -28.5402 -11.47686 -86.81211 5.312953 19.44753 0 0 -16.55071 19.95475 16.93473 -10.68911
2217.912 74.23467 1422.231 8.570741 12.15492 145.3141 3.478345 2.611815 -10.983 -0 22.82873 -0 -16.6017 19.31974 2.69992 -1.631942 0.938424 -0.4211823 -0 15.58922 -0 5.470609 -9.539992 15.24888 1.336211 -3.550823 3.301795 -2.128797 17.87798 -5.003088 2.213835 24.03458 3.418499 0.3660192 -19.20803 6.541549 -12.09058 -26.59055 10.53973 103.7984 1.833112 -14.35366 -0 0 9.370919 -35.2928 9.727164 17.33398 4.825875 -28.5402 -11.47686 -86.81211 5.312953 19.44753 0 0 -16.55071 19.95475 16.93473 -10.68911
2221.95 74.29516 1415.201 8.485713 12.21397 145.717 3.478345 2.611815 -10.983 -0 22.82873 -0 -16.6017 19.31974 2.69992 -1.631942 0.938424 -0.4211823 -0 15.58922 -0 5.470609 -9.539992 15.24888 1.336211 -3.550823 3.301795 -2.128797 17.87798 -5.003088 2.213835 24.03458 3.418499 0.3660192 -19.20803 6.541549 -12.09058 -26.59055 10.53973 103.7984 1.833112 -14.35366 -0 0 9.370919 -35.2928 9.727164 17.33398 4.825875 -28.5402 -11.47686 -86.81211 5.312953 19.44753 0 0 -16.55071 19.95475 16.93473 -10.68911
2225.938 74.35564 1408.143 8.400243 12.27244 146.12 3.478345 2.611815 -10.983 -0 22.82873 -0 -16.6017 19.31974 2.69992 -1.631942 0.938424 -0.4211823 -0 15.58922 -0 5.470609 -9.539992 15.24888 1.336211 -3.550823 3.301795 -2.128797 17.87798 -5.003088 2.213835 24.03458 3.418499 0.3660192 -19.20803 6.541549 -12.09058 -26.59055 10.53973 103.7984 1.833112 -14.35366 -0 0 9.370919 -35.2928 9.727164 17.33398 4.825875 -28.5402 -11.47686 -86.81211 5.312953 19.44753 0 0 -16.55071 19.95475 16.93473 -10.68911
2229.878 74.41613 1401.058 8.314336 12.33031 146.5232 3.478345 2.611815 -10.983 -0 22.82873 -0 -16.6017 19.31974 2.69992 -1.631942 0.9384239 -0.4211823 -0 15.58922 -0 5.470609 -9.539992 15.24888 1.336211 -3.550823 3.301795 -2.128797 17.87798 -5.003088 2.213835 24.03458 3.418499 0.3660192 -19.20803 6.541549 -12.09058 -26.59055 10.53973 103.7984 1.833113 -14.35366 -0 0 9.370919 -35.2928 9.727164 17.33398 4.825875 -28.5402 -11.47686 -86.81211 5.312953 19.44753 0 0 -16.55071 19.95475 16.93473 -10.68911
